<?xml version="1.0" encoding="UTF-8"?>
<!DOCTYPE svg PUBLIC "-//W3C//DTD SVG 1.1//EN" "http://www.w3.org/Graphics/SVG/1.1/DTD/svg11.dtd">
<!-- Creator: CorelDRAW -->
<svg xmlns="http://www.w3.org/2000/svg" xml:space="preserve" width="10mm" height="10mm" style="shape-rendering:geometricPrecision; text-rendering:geometricPrecision; image-rendering:optimizeQuality; fill-rule:evenodd; clip-rule:evenodd"
viewBox="0 0 10 10">
 <defs>
  <style type="text/css">
   <![CDATA[
    .str0 {stroke:black;stroke-width:0.0762}
    .fil0 {fill:black}
   ]]>
  </style>
 </defs>
 <g id="Capa_x0020_1">
  <metadata id="CorelCorpID_0Corel-Layer"/>
  <path class="fil0 str0" d="M4.5645 0.243l0.871 0c0.6342,0.0445 1.3208,0.2686 2.063,0.6755 1.5052,1.0458 2.2586,2.4016 2.2586,4.0657 0,1.6355 -0.7248,2.9722 -2.1743,4.0085 -0.8297,0.5102 -1.6959,0.7645 -2.5987,0.7645 -1.1793,0 -2.2522,-0.4243 -3.217,-1.2715 -0.6929,-0.7264 -1.1062,-1.3478 -1.2397,-1.8628 -0.1526,-0.4101 -0.2464,-0.8328 -0.2845,-1.2715l0 -0.7312c0,-0.4593 0.1891,-1.0998 0.5642,-1.9231 0.2798,-0.4864 0.666,-0.9473 1.1587,-1.3828 0.5945,-0.5055 1.3272,-0.844 2.2029,-1.0141 0.1987,-0.0381 0.3306,-0.0572 0.3958,-0.0572zm-0.596 2.6829l-0.1399 0c-1.297,0.0747 -1.9454,0.2528 -1.9454,0.5357 -0.0191,0.0302 -0.0286,0.0779 -0.0286,0.1398 0.0254,0.2448 0.1462,0.3672 0.3639,0.3672l0 0.0286c0.7137,-0.186 1.3828,-0.2797 2.0059,-0.2797l0.0572 0c1.2064,0 2.3173,0.2622 3.3282,0.7867 0.0747,0.0191 0.1415,0.0286 0.2003,0.0286 0.1891,0 0.302,-0.151 0.3353,-0.453 0,-0.3592 -0.8264,-0.7168 -2.481,-1.0696 -0.4912,-0.0572 -0.9807,-0.0938 -1.4671,-0.1129l-0.0556 0.0286c-0.0191,0 -0.0286,-0.0095 -0.0286,-0.0286l-0.1446 0.0286zm-1.8342 2.0583c0.0365,0.2257 0.1319,0.3402 0.2845,0.3402l0.1669 0c0.72,-0.1494 1.2667,-0.2242 1.6387,-0.2242 0.9139,0 1.8532,0.2528 2.8228,0.7598 0.0747,0.0175 0.1398,0.027 0.1955,0.027 0.1525,0 0.2463,-0.1017 0.2845,-0.3067 -0.0382,-0.3704 -0.7344,-0.7073 -2.0917,-1.0157 -0.2019,-0.0588 -0.6532,-0.1065 -1.3542,-0.1446 -1.2795,0.0969 -1.9184,0.2559 -1.9184,0.48 0,0.0222 -0.0095,0.0492 -0.0286,0.0842zm0.2003 1.2715l0 0.0827c0.0365,0.1717 0.0842,0.2559 0.1398,0.2559l0.0556 0c0.7725,-0.1113 1.3002,-0.1669 1.5831,-0.1669l0.0842 0c0.9442,0 1.7516,0.2162 2.4255,0.6469l0.0842 0c0.1701,-0.0238 0.2559,-0.1081 0.2559,-0.2511l0 -0.0318c0,-0.24 -0.5467,-0.5118 -1.6387,-0.8154 -0.4498,-0.0588 -0.7422,-0.089 -0.8757,-0.089l-0.5357 0c-1.0521,0.0811 -1.5782,0.2035 -1.5782,0.3687z"/>
 </g>
</svg>
